{
    "asset" : {
        "generator" : "Khronos glTF Blender I/O v1.5.17",
        "version" : "2.0"
    },
    "scene" : 0,
    "scenes" : [
        {
            "name" : "Scene",
            "nodes" : [
                1
            ]
        }
    ],
    "nodes" : [
        {
            "name" : "Point",
            "translation" : [
                -0.0007480420172214508,
                -0.0007779980078339577,
                0.05867409706115723
            ]
        },
        {
            "children" : [
                0
            ],
            "mesh" : 0,
            "name" : "Lamp"
        }
    ],
    "materials" : [
        {
            "doubleSided" : true,
            "name" : "Main_Body.357",
            "pbrMetallicRoughness" : {
                "baseColorFactor" : [
                    0.5,
                    0.5,
                    0.5,
                    1
                ],
                "metallicFactor" : 0.800000011920929,
                "roughnessFactor" : 0.800000011920929
            }
        },
        {
            "doubleSided" : true,
            "name" : "Metal_Strip",
            "pbrMetallicRoughness" : {
                "baseColorFactor" : [
                    0.3362974226474762,
                    0.3362974226474762,
                    0.3362974226474762,
                    1
                ],
                "metallicFactor" : 0.5454545617103577,
                "roughnessFactor" : 0.19421488046646118
            }
        },
        {
            "doubleSided" : true,
            "name" : "Top_Plate",
            "pbrMetallicRoughness" : {
                "baseColorFactor" : [
                    0.8000000715255737,
                    0.21689091622829437,
                    0.024913830682635307,
                    1
                ],
                "metallicFactor" : 0,
                "roughnessFactor" : 0.5
            }
        }
    ],
    "meshes" : [
        {
            "name" : "Lamp.001",
            "primitives" : [
                {
                    "attributes" : {
                        "POSITION" : 0,
                        "NORMAL" : 1,
                        "TEXCOORD_0" : 2
                    },
                    "indices" : 3,
                    "material" : 0
                },
                {
                    "attributes" : {
                        "POSITION" : 4,
                        "NORMAL" : 5,
                        "TEXCOORD_0" : 6
                    },
                    "indices" : 7,
                    "material" : 1
                },
                {
                    "attributes" : {
                        "POSITION" : 8,
                        "NORMAL" : 9,
                        "TEXCOORD_0" : 10
                    },
                    "indices" : 11,
                    "material" : 2
                }
            ]
        }
    ],
    "accessors" : [
        {
            "bufferView" : 0,
            "componentType" : 5126,
            "count" : 1901,
            "max" : [
                0.1276986002922058,
                0.12766854465007782,
                0.2315327227115631
            ],
            "min" : [
                -0.12919458746910095,
                -0.1292247176170349,
                -0.0012006163597106934
            ],
            "type" : "VEC3"
        },
        {
            "bufferView" : 1,
            "componentType" : 5126,
            "count" : 1901,
            "type" : "VEC3"
        },
        {
            "bufferView" : 2,
            "componentType" : 5126,
            "count" : 1901,
            "type" : "VEC2"
        },
        {
            "bufferView" : 3,
            "componentType" : 5123,
            "count" : 9036,
            "type" : "SCALAR"
        },
        {
            "bufferView" : 4,
            "componentType" : 5126,
            "count" : 405,
            "max" : [
                0.009607503190636635,
                0.00957752950489521,
                0.5230751037597656
            ],
            "min" : [
                -0.011103592813014984,
                -0.011133565567433834,
                0.2315327227115631
            ],
            "type" : "VEC3"
        },
        {
            "bufferView" : 5,
            "componentType" : 5126,
            "count" : 405,
            "type" : "VEC3"
        },
        {
            "bufferView" : 6,
            "componentType" : 5126,
            "count" : 405,
            "type" : "VEC2"
        },
        {
            "bufferView" : 7,
            "componentType" : 5123,
            "count" : 1032,
            "type" : "SCALAR"
        },
        {
            "bufferView" : 8,
            "componentType" : 5126,
            "count" : 654,
            "max" : [
                0.14267586171627045,
                0.14264586567878723,
                0.514611005783081
            ],
            "min" : [
                -0.14417193830013275,
                -0.14420191943645477,
                0.4921923279762268
            ],
            "type" : "VEC3"
        },
        {
            "bufferView" : 9,
            "componentType" : 5126,
            "count" : 654,
            "type" : "VEC3"
        },
        {
            "bufferView" : 10,
            "componentType" : 5126,
            "count" : 654,
            "type" : "VEC2"
        },
        {
            "bufferView" : 11,
            "componentType" : 5123,
            "count" : 1440,
            "type" : "SCALAR"
        }
    ],
    "bufferViews" : [
        {
            "buffer" : 0,
            "byteLength" : 22812,
            "byteOffset" : 0
        },
        {
            "buffer" : 0,
            "byteLength" : 22812,
            "byteOffset" : 22812
        },
        {
            "buffer" : 0,
            "byteLength" : 15208,
            "byteOffset" : 45624
        },
        {
            "buffer" : 0,
            "byteLength" : 18072,
            "byteOffset" : 60832
        },
        {
            "buffer" : 0,
            "byteLength" : 4860,
            "byteOffset" : 78904
        },
        {
            "buffer" : 0,
            "byteLength" : 4860,
            "byteOffset" : 83764
        },
        {
            "buffer" : 0,
            "byteLength" : 3240,
            "byteOffset" : 88624
        },
        {
            "buffer" : 0,
            "byteLength" : 2064,
            "byteOffset" : 91864
        },
        {
            "buffer" : 0,
            "byteLength" : 7848,
            "byteOffset" : 93928
        },
        {
            "buffer" : 0,
            "byteLength" : 7848,
            "byteOffset" : 101776
        },
        {
            "buffer" : 0,
            "byteLength" : 5232,
            "byteOffset" : 109624
        },
        {
            "buffer" : 0,
            "byteLength" : 2880,
            "byteOffset" : 114856
        }
    ],
    "buffers" : [
        {
            "byteLength" : 117736,
            "uri" : "data:application/octet-stream;base64,"
        }
    ]
}
